<?xml version="1.0" encoding="UTF-8"?>
<svg xmlns="http://www.w3.org/2000/svg" xmlns:xlink="http://www.w3.org/1999/xlink" width="32px" height="26px" viewBox="0 0 32 26" version="1.1">
<defs>
<radialGradient id="radial0" gradientUnits="userSpaceOnUse" cx="0" cy="0" fx="0" fy="0" r="1" gradientTransform="matrix(4.395742,-2.273129,2.238158,4.464426,13.980439,7.416656)">
<stop offset="0" style="stop-color:rgb(100%,100%,100%);stop-opacity:1;"/>
<stop offset="0.377155" style="stop-color:rgb(100%,100%,100%);stop-opacity:1;"/>
<stop offset="0.803366" style="stop-color:rgb(45.098039%,49.411765%,58.431373%);stop-opacity:1;"/>
<stop offset="0.993248" style="stop-color:rgb(55.686275%,58.039216%,65.882353%);stop-opacity:1;"/>
<stop offset="1" style="stop-color:rgb(55.686275%,58.039216%,65.882353%);stop-opacity:1;"/>
</radialGradient>
<radialGradient id="radial1" gradientUnits="userSpaceOnUse" cx="0" cy="0" fx="0" fy="0" r="1" gradientTransform="matrix(0.000000128324,-2.897418,2.852842,0.000000130329,18.314103,8.816326)">
<stop offset="0" style="stop-color:rgb(100%,100%,100%);stop-opacity:1;"/>
<stop offset="0.377155" style="stop-color:rgb(100%,100%,100%);stop-opacity:1;"/>
<stop offset="0.803366" style="stop-color:rgb(45.098039%,49.411765%,58.431373%);stop-opacity:1;"/>
<stop offset="0.993248" style="stop-color:rgb(55.686275%,58.039216%,65.882353%);stop-opacity:1;"/>
<stop offset="1" style="stop-color:rgb(55.686275%,58.039216%,65.882353%);stop-opacity:1;"/>
</radialGradient>
<radialGradient id="radial2" gradientUnits="userSpaceOnUse" cx="0" cy="0" fx="0" fy="0" r="1" gradientTransform="matrix(-4.395742,2.273129,-2.238158,-4.464426,17.033257,12.961187)">
<stop offset="0" style="stop-color:rgb(100%,100%,100%);stop-opacity:1;"/>
<stop offset="0.377155" style="stop-color:rgb(100%,100%,100%);stop-opacity:1;"/>
<stop offset="0.803366" style="stop-color:rgb(45.098039%,49.411765%,58.431373%);stop-opacity:1;"/>
<stop offset="0.993248" style="stop-color:rgb(55.686275%,58.039216%,65.882353%);stop-opacity:1;"/>
<stop offset="1" style="stop-color:rgb(55.686275%,58.039216%,65.882353%);stop-opacity:1;"/>
</radialGradient>
<radialGradient id="radial3" gradientUnits="userSpaceOnUse" cx="0" cy="0" fx="0" fy="0" r="1" gradientTransform="matrix(-4.034601,-3.285496,3.23495,-4.097641,17.764989,8.879906)">
<stop offset="0" style="stop-color:rgb(100%,100%,100%);stop-opacity:1;"/>
<stop offset="0.377155" style="stop-color:rgb(100%,100%,100%);stop-opacity:1;"/>
<stop offset="0.803366" style="stop-color:rgb(45.098039%,49.411765%,58.431373%);stop-opacity:1;"/>
<stop offset="0.993248" style="stop-color:rgb(55.686275%,58.039216%,65.882353%);stop-opacity:1;"/>
<stop offset="1" style="stop-color:rgb(55.686275%,58.039216%,65.882353%);stop-opacity:1;"/>
</radialGradient>
<radialGradient id="radial4" gradientUnits="userSpaceOnUse" cx="0" cy="0" fx="0" fy="0" r="1" gradientTransform="matrix(4.987563,2.888592,-2.844152,5.065493,12.538221,11.49788)">
<stop offset="0" style="stop-color:rgb(100%,100%,100%);stop-opacity:1;"/>
<stop offset="0.377155" style="stop-color:rgb(100%,100%,100%);stop-opacity:1;"/>
<stop offset="0.803366" style="stop-color:rgb(45.098039%,49.411765%,58.431373%);stop-opacity:1;"/>
<stop offset="0.993248" style="stop-color:rgb(55.686275%,58.039216%,65.882353%);stop-opacity:1;"/>
<stop offset="1" style="stop-color:rgb(55.686275%,58.039216%,65.882353%);stop-opacity:1;"/>
</radialGradient>
<radialGradient id="radial5" gradientUnits="userSpaceOnUse" cx="0" cy="0" fx="0" fy="0" r="1" gradientTransform="matrix(-0.000000548293,12.755558,-12.559318,-0.00000055686,15.735664,18.953955)">
<stop offset="0" style="stop-color:rgb(100%,85.098039%,67.45098%);stop-opacity:1;"/>
<stop offset="0.00372688" style="stop-color:rgb(100%,85.098039%,67.45098%);stop-opacity:1;"/>
<stop offset="0.233087" style="stop-color:rgb(100%,85.098039%,67.45098%);stop-opacity:1;"/>
<stop offset="0.489796" style="stop-color:rgb(94.901961%,39.607843%,13.333333%);stop-opacity:1;"/>
<stop offset="0.54552" style="stop-color:rgb(94.901961%,39.607843%,13.333333%);stop-opacity:1;"/>
<stop offset="0.880301" style="stop-color:rgb(69.803922%,12.54902%,19.215686%);stop-opacity:1;"/>
<stop offset="0.885289" style="stop-color:rgb(69.803922%,12.54902%,19.215686%);stop-opacity:1;"/>
<stop offset="1" style="stop-color:rgb(63.529412%,11.372549%,12.941176%);stop-opacity:1;"/>
</radialGradient>
<linearGradient id="linear0" gradientUnits="userSpaceOnUse" x1="0" y1="0" x2="0" y2="54" gradientTransform="matrix(0.116658,0,0,-0.118481,13.964848,11.790071)">
<stop offset="0" style="stop-color:rgb(96.078431%,31.764706%,37.254902%);stop-opacity:1;"/>
<stop offset="1" style="stop-color:rgb(62.352941%,1.568627%,10.588235%);stop-opacity:1;"/>
</linearGradient>
<radialGradient id="radial6" gradientUnits="userSpaceOnUse" cx="0" cy="0" fx="0" fy="0" r="1" gradientTransform="matrix(-0.000000349974,-8.256396,8.129375,-0.000000355442,14.936887,14.297452)">
<stop offset="0" style="stop-color:rgb(100%,85.098039%,67.45098%);stop-opacity:1;"/>
<stop offset="0.00372688" style="stop-color:rgb(100%,85.098039%,67.45098%);stop-opacity:1;"/>
<stop offset="0.233087" style="stop-color:rgb(100%,85.098039%,67.45098%);stop-opacity:1;"/>
<stop offset="0.489796" style="stop-color:rgb(94.901961%,39.607843%,13.333333%);stop-opacity:1;"/>
<stop offset="0.54552" style="stop-color:rgb(94.901961%,39.607843%,13.333333%);stop-opacity:1;"/>
<stop offset="0.880301" style="stop-color:rgb(69.803922%,12.54902%,19.215686%);stop-opacity:1;"/>
<stop offset="0.885289" style="stop-color:rgb(69.803922%,12.54902%,19.215686%);stop-opacity:1;"/>
<stop offset="1" style="stop-color:rgb(63.529412%,11.372549%,12.941176%);stop-opacity:1;"/>
</radialGradient>
<radialGradient id="radial7" gradientUnits="userSpaceOnUse" cx="0" cy="0" fx="0" fy="0" r="1" gradientTransform="matrix(-0.000000349974,8.149527,-8.02415,-0.000000355442,15.688727,6.5531)">
<stop offset="0" style="stop-color:rgb(100%,85.098039%,67.45098%);stop-opacity:1;"/>
<stop offset="0.00372688" style="stop-color:rgb(100%,85.098039%,67.45098%);stop-opacity:1;"/>
<stop offset="0.233087" style="stop-color:rgb(100%,85.098039%,67.45098%);stop-opacity:1;"/>
<stop offset="0.489796" style="stop-color:rgb(94.901961%,39.607843%,13.333333%);stop-opacity:1;"/>
<stop offset="0.54552" style="stop-color:rgb(94.901961%,39.607843%,13.333333%);stop-opacity:1;"/>
<stop offset="0.880301" style="stop-color:rgb(69.803922%,12.54902%,19.215686%);stop-opacity:1;"/>
<stop offset="0.885289" style="stop-color:rgb(69.803922%,12.54902%,19.215686%);stop-opacity:1;"/>
<stop offset="1" style="stop-color:rgb(63.529412%,11.372549%,12.941176%);stop-opacity:1;"/>
</radialGradient>
<radialGradient id="radial8" gradientUnits="userSpaceOnUse" cx="0" cy="0" fx="0" fy="0" r="1" gradientTransform="matrix(-0.000000279979,6.600127,-6.498587,-0.000000284354,14.095616,7.880108)">
<stop offset="0" style="stop-color:rgb(100%,85.098039%,67.45098%);stop-opacity:1;"/>
<stop offset="0.00372688" style="stop-color:rgb(100%,85.098039%,67.45098%);stop-opacity:1;"/>
<stop offset="0.0371754" style="stop-color:rgb(100%,85.098039%,67.45098%);stop-opacity:1;"/>
<stop offset="1" style="stop-color:rgb(94.901961%,39.607843%,13.333333%);stop-opacity:1;"/>
</radialGradient>
<radialGradient id="radial9" gradientUnits="userSpaceOnUse" cx="0" cy="0" fx="0" fy="0" r="1" gradientTransform="matrix(-0.000000128324,2.897592,-2.853013,-0.000000130329,12.699422,11.561517)">
<stop offset="0" style="stop-color:rgb(100%,100%,100%);stop-opacity:1;"/>
<stop offset="0.377155" style="stop-color:rgb(100%,100%,100%);stop-opacity:1;"/>
<stop offset="0.803366" style="stop-color:rgb(45.098039%,49.411765%,58.431373%);stop-opacity:1;"/>
<stop offset="0.993248" style="stop-color:rgb(55.686275%,58.039216%,65.882353%);stop-opacity:1;"/>
<stop offset="1" style="stop-color:rgb(55.686275%,58.039216%,65.882353%);stop-opacity:1;"/>
</radialGradient>
</defs>
<g id="surface1">
<path style=" stroke:none;fill-rule:nonzero;fill:rgb(64.313728%,10.980392%,14.117648%);fill-opacity:1;" d="M 9.664062 4.722656 C 9.988281 4.722656 10.300781 4.539062 10.300781 4.183594 C 10.300781 3.835938 10.03125 3.691406 9.738281 3.601562 C 9.660156 3.574219 9.601562 3.550781 9.5625 3.535156 C 9.511719 3.507812 9.472656 3.480469 9.472656 3.414062 C 9.472656 3.339844 9.566406 3.3125 9.625 3.3125 C 9.761719 3.3125 9.832031 3.375 9.890625 3.496094 L 10.25 3.28125 C 10.125 3.019531 9.910156 2.886719 9.625 2.886719 C 9.3125 2.886719 9.050781 3.089844 9.050781 3.414062 C 9.050781 3.75 9.285156 3.878906 9.566406 3.964844 C 9.65625 3.992188 9.71875 4.015625 9.761719 4.03125 C 9.820312 4.054688 9.878906 4.085938 9.878906 4.160156 C 9.878906 4.253906 9.753906 4.300781 9.675781 4.300781 C 9.511719 4.300781 9.394531 4.238281 9.332031 4.078125 L 8.976562 4.289062 C 9.089844 4.585938 9.359375 4.722656 9.664062 4.722656 Z M 11.511719 2.917969 L 10.847656 2.917969 L 10.847656 4.6875 L 11.269531 4.6875 L 11.269531 4.117188 L 11.511719 4.117188 C 11.839844 4.117188 12.105469 3.847656 12.105469 3.519531 C 12.105469 3.1875 11.839844 2.917969 11.511719 2.917969 Z M 11.269531 3.710938 L 11.269531 3.328125 L 11.511719 3.328125 C 11.621094 3.328125 11.699219 3.40625 11.699219 3.519531 C 11.699219 3.625 11.617188 3.710938 11.511719 3.710938 Z M 13.597656 4.6875 L 14.046875 4.6875 L 13.410156 2.917969 L 12.957031 2.917969 L 12.320312 4.6875 L 12.773438 4.6875 L 12.886719 4.378906 L 13.484375 4.378906 Z M 13.03125 3.96875 L 13.1875 3.542969 L 13.335938 3.96875 Z M 14.386719 3.808594 C 14.386719 4.316406 14.792969 4.722656 15.285156 4.722656 C 15.613281 4.722656 15.925781 4.53125 16.078125 4.238281 L 15.703125 4.03125 C 15.628906 4.1875 15.457031 4.292969 15.285156 4.292969 C 15.027344 4.292969 14.808594 4.070312 14.808594 3.808594 C 14.808594 3.546875 15.027344 3.328125 15.285156 3.328125 C 15.457031 3.328125 15.617188 3.421875 15.699219 3.578125 L 16.074219 3.375 C 15.917969 3.082031 15.613281 2.902344 15.285156 2.902344 C 14.792969 2.902344 14.386719 3.304688 14.386719 3.808594 Z M 17.03125 4.28125 L 17.03125 3.984375 L 17.636719 3.984375 L 17.636719 3.582031 L 17.03125 3.582031 L 17.03125 3.328125 L 17.699219 3.328125 L 17.699219 2.917969 L 16.605469 2.917969 L 16.605469 4.6875 L 17.710938 4.6875 L 17.710938 4.28125 Z M 20.46875 4.6875 L 20.921875 4.6875 L 20.28125 2.917969 L 19.828125 2.917969 L 19.191406 4.6875 L 19.648438 4.6875 L 19.757812 4.378906 L 20.355469 4.378906 Z M 19.902344 3.96875 L 20.058594 3.542969 L 20.207031 3.96875 Z M 21.464844 2.917969 L 21.464844 4.6875 L 21.890625 4.6875 L 21.890625 2.917969 Z M 21.464844 2.917969 "/>
<path style=" stroke:none;fill-rule:nonzero;fill:rgb(94.901961%,39.607844%,13.333334%);fill-opacity:1;" d="M 9.753906 10.816406 L 9.515625 10.699219 L 9.742188 10.558594 L 9.734375 10.382812 L 9.332031 10.628906 L 9.121094 10.636719 L 9.125 10.792969 L 9.335938 10.785156 L 9.761719 10.992188 Z M 9.753906 10.816406 "/>
<path style=" stroke:none;fill-rule:nonzero;fill:rgb(94.901961%,39.607844%,13.333334%);fill-opacity:1;" d="M 9.21875 11.644531 C 9.25 11.824219 9.421875 11.941406 9.597656 11.90625 C 9.773438 11.871094 9.886719 11.703125 9.851562 11.523438 C 9.820312 11.34375 9.648438 11.226562 9.476562 11.261719 C 9.300781 11.292969 9.183594 11.46875 9.21875 11.644531 Z M 9.503906 11.414062 C 9.59375 11.394531 9.6875 11.460938 9.703125 11.550781 C 9.722656 11.644531 9.660156 11.734375 9.566406 11.753906 C 9.476562 11.769531 9.386719 11.710938 9.367188 11.617188 C 9.351562 11.523438 9.414062 11.429688 9.503906 11.414062 Z M 9.503906 11.414062 "/>
<path style=" stroke:none;fill-rule:nonzero;fill:rgb(94.901961%,39.607844%,13.333334%);fill-opacity:1;" d="M 9.769531 12.777344 L 10.160156 12.636719 L 10.109375 12.488281 L 9.71875 12.632812 C 9.667969 12.648438 9.632812 12.605469 9.617188 12.5625 C 9.605469 12.523438 9.605469 12.460938 9.652344 12.445312 L 10.046875 12.304688 L 9.996094 12.160156 L 9.601562 12.300781 C 9.472656 12.347656 9.429688 12.488281 9.476562 12.613281 C 9.519531 12.738281 9.640625 12.824219 9.769531 12.777344 Z M 9.769531 12.777344 "/>
<path style=" stroke:none;fill-rule:nonzero;fill:rgb(94.901961%,39.607844%,13.333334%);fill-opacity:1;" d="M 10.03125 13.371094 L 9.90625 13.566406 L 9.988281 13.722656 L 10.136719 13.496094 C 10.199219 13.53125 10.273438 13.53125 10.339844 13.496094 C 10.441406 13.441406 10.484375 13.3125 10.429688 13.203125 L 10.304688 12.964844 L 9.75 13.261719 L 9.820312 13.398438 L 10 13.304688 Z M 10.128906 13.234375 L 10.246094 13.171875 L 10.300781 13.273438 C 10.316406 13.308594 10.304688 13.347656 10.269531 13.367188 C 10.238281 13.382812 10.195312 13.371094 10.179688 13.335938 Z M 10.128906 13.234375 "/>
<path style=" stroke:none;fill-rule:nonzero;fill:rgb(94.901961%,39.607844%,13.333334%);fill-opacity:1;" d="M 10.648438 14.683594 C 10.722656 14.777344 10.847656 14.820312 10.941406 14.738281 C 11.039062 14.65625 11.011719 14.546875 10.96875 14.445312 C 10.957031 14.417969 10.953125 14.394531 10.949219 14.378906 C 10.941406 14.359375 10.941406 14.339844 10.957031 14.328125 C 10.976562 14.308594 11.007812 14.328125 11.023438 14.34375 C 11.054688 14.382812 11.050781 14.417969 11.035156 14.460938 L 11.175781 14.511719 C 11.21875 14.417969 11.203125 14.324219 11.136719 14.246094 C 11.066406 14.160156 10.949219 14.132812 10.859375 14.207031 C 10.769531 14.285156 10.789062 14.382812 10.832031 14.480469 C 10.84375 14.511719 10.851562 14.535156 10.859375 14.550781 C 10.867188 14.574219 10.871094 14.597656 10.851562 14.613281 C 10.824219 14.636719 10.785156 14.609375 10.765625 14.589844 C 10.726562 14.542969 10.71875 14.496094 10.746094 14.441406 L 10.605469 14.390625 C 10.550781 14.492188 10.578125 14.601562 10.648438 14.683594 Z M 10.648438 14.683594 "/>
<path style=" stroke:none;fill-rule:nonzero;fill:rgb(94.901961%,39.607844%,13.333334%);fill-opacity:1;" d="M 11.683594 14.832031 L 11.503906 14.671875 L 11.082031 15.140625 L 11.195312 15.246094 L 11.332031 15.09375 L 11.394531 15.152344 C 11.484375 15.234375 11.617188 15.226562 11.699219 15.140625 C 11.777344 15.050781 11.769531 14.914062 11.683594 14.832031 Z M 11.429688 14.984375 L 11.519531 14.882812 L 11.585938 14.941406 C 11.613281 14.96875 11.617188 15.011719 11.589844 15.039062 C 11.5625 15.070312 11.523438 15.070312 11.492188 15.042969 Z M 11.429688 14.984375 "/>
<path style=" stroke:none;fill-rule:nonzero;fill:rgb(94.901961%,39.607844%,13.333334%);fill-opacity:1;" d="M 12.007812 15.894531 L 12.144531 15.992188 L 12.3125 15.335938 L 12.179688 15.238281 L 11.632812 15.628906 L 11.765625 15.722656 L 11.859375 15.65625 L 12.039062 15.78125 Z M 11.988281 15.566406 L 12.121094 15.472656 L 12.078125 15.628906 Z M 11.988281 15.566406 "/>
<path style=" stroke:none;fill-rule:nonzero;fill:rgb(94.901961%,39.607844%,13.333334%);fill-opacity:1;" d="M 12.988281 15.902344 L 13.054688 15.773438 L 12.640625 15.550781 L 12.574219 15.679688 L 12.714844 15.753906 L 12.488281 16.1875 L 12.621094 16.261719 L 12.847656 15.828125 Z M 12.988281 15.902344 "/>
<path style=" stroke:none;fill-rule:nonzero;fill:rgb(94.901961%,39.607844%,13.333334%);fill-opacity:1;" d="M 13.34375 15.898438 L 13.113281 16.492188 L 13.253906 16.550781 L 13.488281 15.957031 Z M 13.34375 15.898438 "/>
<path style=" stroke:none;fill-rule:nonzero;fill:rgb(94.901961%,39.607844%,13.333334%);fill-opacity:1;" d="M 14.042969 16.800781 L 14.199219 16.84375 L 14.140625 16.167969 L 13.984375 16.125 L 13.597656 16.679688 L 13.753906 16.722656 L 13.824219 16.628906 L 14.03125 16.683594 Z M 13.910156 16.5 L 14.003906 16.367188 L 14.015625 16.527344 Z M 13.910156 16.5 "/>
<path style=" stroke:none;fill-rule:nonzero;fill:rgb(94.901961%,39.607844%,13.333334%);fill-opacity:1;" d="M 14.742188 16.789062 L 14.804688 16.300781 L 14.65625 16.28125 L 14.574219 16.914062 L 14.964844 16.964844 L 14.984375 16.820312 Z M 14.742188 16.789062 "/>
<path style=" stroke:none;fill-rule:nonzero;fill:rgb(94.901961%,39.607844%,13.333334%);fill-opacity:1;" d="M 16.300781 16.953125 L 16.464844 16.9375 L 16.179688 16.324219 L 16.019531 16.339844 L 15.84375 16.992188 L 16.007812 16.980469 L 16.039062 16.867188 L 16.253906 16.847656 Z M 16.078125 16.714844 L 16.121094 16.554688 L 16.1875 16.703125 Z M 16.078125 16.714844 "/>
<path style=" stroke:none;fill-rule:nonzero;fill:rgb(94.901961%,39.607844%,13.333334%);fill-opacity:1;" d="M 16.9375 16.195312 L 16.707031 16.25 L 16.847656 16.871094 L 16.996094 16.835938 L 16.949219 16.632812 L 17.035156 16.613281 C 17.152344 16.585938 17.222656 16.472656 17.195312 16.355469 C 17.167969 16.238281 17.054688 16.167969 16.9375 16.195312 Z M 16.917969 16.492188 L 16.886719 16.355469 L 16.972656 16.335938 C 17.011719 16.328125 17.042969 16.347656 17.054688 16.386719 C 17.0625 16.425781 17.039062 16.460938 17.003906 16.472656 Z M 16.917969 16.492188 "/>
<path style=" stroke:none;fill-rule:nonzero;fill:rgb(94.901961%,39.607844%,13.333334%);fill-opacity:1;" d="M 17.691406 15.957031 L 17.464844 16.042969 L 17.6875 16.640625 L 17.832031 16.585938 L 17.757812 16.394531 L 17.839844 16.363281 C 17.953125 16.320312 18.007812 16.195312 17.964844 16.082031 C 17.921875 15.972656 17.800781 15.914062 17.691406 15.957031 Z M 17.707031 16.253906 L 17.660156 16.125 L 17.742188 16.09375 C 17.777344 16.082031 17.816406 16.097656 17.828125 16.136719 C 17.84375 16.171875 17.824219 16.210938 17.789062 16.222656 Z M 17.707031 16.253906 "/>
<path style=" stroke:none;fill-rule:nonzero;fill:rgb(94.901961%,39.607844%,13.333334%);fill-opacity:1;" d="M 18.6875 16.203125 C 18.789062 16.148438 18.855469 16.035156 18.796875 15.921875 C 18.738281 15.8125 18.628906 15.8125 18.519531 15.835938 C 18.492188 15.84375 18.46875 15.84375 18.453125 15.84375 C 18.433594 15.847656 18.414062 15.84375 18.402344 15.824219 C 18.390625 15.800781 18.417969 15.773438 18.433594 15.765625 C 18.476562 15.742188 18.511719 15.75 18.550781 15.777344 L 18.628906 15.644531 C 18.542969 15.585938 18.453125 15.578125 18.363281 15.628906 C 18.265625 15.683594 18.214844 15.792969 18.269531 15.898438 C 18.328125 16.003906 18.421875 16.003906 18.527344 15.980469 C 18.558594 15.972656 18.582031 15.96875 18.601562 15.96875 C 18.621094 15.964844 18.648438 15.964844 18.660156 15.988281 C 18.675781 16.019531 18.640625 16.054688 18.617188 16.070312 C 18.566406 16.097656 18.519531 16.097656 18.472656 16.058594 L 18.394531 16.1875 C 18.480469 16.261719 18.589844 16.257812 18.6875 16.203125 Z M 18.6875 16.203125 "/>
<path style=" stroke:none;fill-rule:nonzero;fill:rgb(94.901961%,39.607844%,13.333334%);fill-opacity:1;" d="M 19.425781 14.894531 L 19.246094 15.054688 L 19.65625 15.535156 L 19.769531 15.4375 L 19.636719 15.28125 L 19.703125 15.222656 C 19.792969 15.144531 19.804688 15.007812 19.726562 14.917969 C 19.652344 14.828125 19.515625 14.816406 19.425781 14.894531 Z M 19.542969 15.167969 L 19.453125 15.0625 L 19.519531 15.007812 C 19.550781 14.980469 19.589844 14.984375 19.617188 15.015625 C 19.640625 15.042969 19.640625 15.085938 19.609375 15.109375 Z M 19.542969 15.167969 "/>
<path style=" stroke:none;fill-rule:nonzero;fill:rgb(94.901961%,39.607844%,13.333334%);fill-opacity:1;" d="M 20.503906 14.695312 L 20.613281 14.574219 L 19.992188 14.320312 L 19.882812 14.445312 L 20.199219 15.042969 L 20.308594 14.921875 L 20.253906 14.816406 L 20.398438 14.652344 Z M 20.179688 14.675781 L 20.105469 14.53125 L 20.253906 14.59375 Z M 20.179688 14.675781 "/>
<path style=" stroke:none;fill-rule:nonzero;fill:rgb(94.901961%,39.607844%,13.333334%);fill-opacity:1;" d="M 20.804688 13.953125 L 21.035156 13.96875 L 21.132812 13.824219 L 20.863281 13.800781 C 20.863281 13.726562 20.828125 13.660156 20.765625 13.621094 C 20.667969 13.554688 20.539062 13.578125 20.472656 13.679688 L 20.324219 13.90625 L 20.847656 14.257812 L 20.933594 14.128906 L 20.765625 14.015625 Z M 20.644531 13.933594 L 20.53125 13.855469 L 20.59375 13.761719 C 20.613281 13.726562 20.65625 13.71875 20.6875 13.742188 C 20.71875 13.761719 20.726562 13.804688 20.707031 13.835938 Z M 20.644531 13.933594 "/>
<path style=" stroke:none;fill-rule:nonzero;fill:rgb(94.901961%,39.607844%,13.333334%);fill-opacity:1;" d="M 21.074219 12.875 L 20.941406 12.808594 L 20.738281 13.238281 L 20.867188 13.300781 L 20.9375 13.15625 L 21.371094 13.375 L 21.4375 13.234375 L 21.003906 13.019531 Z M 21.074219 12.875 "/>
<path style=" stroke:none;fill-rule:nonzero;fill:rgb(94.901961%,39.607844%,13.333334%);fill-opacity:1;" d="M 21.175781 12.160156 L 21.480469 12.261719 L 21.113281 12.359375 L 21.066406 12.507812 L 21.664062 12.703125 L 21.710938 12.554688 L 21.367188 12.441406 L 21.78125 12.335938 L 21.820312 12.210938 L 21.222656 12.015625 Z M 21.175781 12.160156 "/>
<path style=" stroke:none;fill-rule:nonzero;fill:rgb(94.901961%,39.607844%,13.333334%);fill-opacity:1;" d="M 21.8125 11.582031 L 21.710938 11.5625 L 21.746094 11.34375 L 21.605469 11.320312 L 21.566406 11.539062 L 21.480469 11.523438 L 21.519531 11.28125 L 21.378906 11.253906 L 21.308594 11.648438 L 21.925781 11.761719 L 21.996094 11.363281 L 21.855469 11.335938 Z M 21.8125 11.582031 "/>
<path style=" stroke:none;fill-rule:nonzero;fill:rgb(94.901961%,39.607844%,13.333334%);fill-opacity:1;" d="M 21.851562 10.707031 L 22.058594 10.601562 L 22.066406 10.421875 L 21.824219 10.546875 C 21.789062 10.484375 21.722656 10.445312 21.652344 10.441406 C 21.53125 10.4375 21.433594 10.527344 21.429688 10.648438 L 21.417969 10.917969 L 22.042969 10.945312 L 22.050781 10.789062 L 21.851562 10.78125 Z M 21.703125 10.773438 L 21.570312 10.769531 L 21.574219 10.652344 C 21.574219 10.613281 21.605469 10.585938 21.644531 10.585938 C 21.679688 10.589844 21.710938 10.621094 21.710938 10.660156 Z M 21.703125 10.773438 "/>
<path style=" stroke:none;fill-rule:nonzero;fill:url(#radial0);" d="M 14.742188 6.398438 L 14.078125 7.027344 C 15.785156 6.394531 17.554688 7.292969 18.082031 8.171875 L 18.109375 7.546875 C 18.109375 7.546875 17.625 6.554688 16.515625 6.253906 C 16.234375 6.175781 15.984375 6.148438 15.765625 6.148438 C 15.113281 6.148438 14.742188 6.398438 14.742188 6.398438 "/>
<path style=" stroke:none;fill-rule:nonzero;fill:url(#radial1);" d="M 18.109375 7.546875 L 18.082031 8.171875 L 18.785156 7.316406 L 18.84375 6.800781 Z M 18.109375 7.546875 "/>
<path style=" stroke:none;fill-rule:nonzero;fill:url(#radial2);" d="M 12.90625 12.832031 C 12.90625 12.832031 13.386719 13.824219 14.5 14.125 C 15.609375 14.425781 16.269531 13.980469 16.269531 13.980469 L 16.9375 13.351562 C 15.226562 13.984375 13.457031 13.085938 12.933594 12.207031 Z M 12.90625 12.832031 "/>
<path style=" stroke:none;fill-rule:nonzero;fill:url(#radial3);" d="M 14.582031 6.570312 C 14.878906 6.492188 15.1875 6.453125 15.507812 6.453125 C 16.523438 6.453125 17.441406 6.871094 18.109375 7.546875 L 18.84375 6.800781 C 17.988281 5.933594 16.808594 5.398438 15.507812 5.398438 C 14.957031 5.398438 14.480469 5.894531 14.582031 6.570312 "/>
<path style=" stroke:none;fill-rule:nonzero;fill:url(#radial4);" d="M 12.171875 13.574219 C 13.023438 14.441406 14.203125 14.980469 15.507812 14.980469 C 16.058594 14.980469 16.53125 14.484375 16.429688 13.808594 C 16.136719 13.886719 15.824219 13.925781 15.507812 13.925781 C 14.488281 13.925781 13.570312 13.507812 12.90625 12.832031 Z M 12.171875 13.574219 "/>
<path style=" stroke:none;fill-rule:nonzero;fill:url(#radial5);" d="M 14.660156 12.144531 C 15.496094 12.84375 16.246094 13.523438 16.011719 14.25 C 15.808594 14.878906 14.765625 14.980469 13.992188 14.726562 C 14.410156 14.894531 15.042969 15.007812 15.507812 14.980469 C 16.039062 14.949219 16.292969 14.867188 16.585938 14.65625 C 17.066406 14.3125 17.273438 13.71875 16.703125 13.109375 C 15.789062 12.128906 11.835938 8.585938 11.835938 8.585938 C 12.109375 10.132812 13.519531 11.183594 14.660156 12.144531 "/>
<path style=" stroke:none;fill-rule:nonzero;fill:url(#linear0);" d="M 15.507812 5.398438 C 14.972656 5.429688 14.71875 5.511719 14.425781 5.71875 C 13.945312 6.0625 13.738281 6.65625 14.308594 7.269531 C 15.226562 8.25 19.175781 11.789062 19.175781 11.789062 C 18.90625 10.242188 17.496094 9.191406 16.355469 8.234375 C 15.519531 7.53125 14.769531 6.855469 15.003906 6.128906 C 15.207031 5.5 16.25 5.398438 17.019531 5.652344 C 16.644531 5.5 16.089844 5.394531 15.644531 5.394531 C 15.597656 5.394531 15.550781 5.394531 15.507812 5.398438 "/>
<path style=" stroke:none;fill-rule:nonzero;fill:url(#radial6);" d="M 12.570312 6.441406 C 12.519531 6.480469 12.46875 6.523438 12.421875 6.566406 L 12.417969 6.566406 C 11.710938 7.289062 11.601562 8.175781 12 9.050781 C 12.175781 9.4375 12.445312 9.820312 12.808594 10.1875 C 14.324219 11.726562 15.730469 12.429688 16.207031 13.21875 C 16.332031 13.421875 16.402344 13.621094 16.429688 13.808594 C 16.53125 14.484375 16.058594 14.980469 15.507812 14.980469 C 16.269531 14.980469 16.988281 14.796875 17.625 14.46875 C 17.628906 14.46875 17.628906 14.46875 17.628906 14.464844 C 17.742188 14.398438 17.839844 14.300781 17.917969 14.175781 C 18.132812 13.839844 18.203125 13.332031 18.054688 12.886719 C 18.039062 12.84375 18.023438 12.800781 18.003906 12.757812 C 17.632812 11.917969 16.574219 11.03125 15.507812 10.1875 C 14.4375 9.347656 13.378906 8.460938 13.007812 7.617188 C 12.992188 7.578125 12.976562 7.535156 12.960938 7.492188 C 12.808594 7.042969 12.878906 6.539062 13.09375 6.203125 C 12.910156 6.242188 12.71875 6.335938 12.570312 6.441406 "/>
<path style=" stroke:none;fill-rule:nonzero;fill:url(#radial7);" d="M 13.386719 5.910156 C 13.273438 5.976562 13.171875 6.078125 13.09375 6.203125 C 12.878906 6.539062 12.808594 7.042969 12.960938 7.492188 C 12.976562 7.535156 12.992188 7.578125 13.007812 7.617188 C 13.378906 8.460938 14.4375 9.347656 15.507812 10.1875 C 16.574219 11.03125 17.632812 11.917969 18.003906 12.757812 C 18.023438 12.800781 18.039062 12.84375 18.054688 12.886719 C 18.203125 13.332031 18.132812 13.839844 17.917969 14.175781 C 18.101562 14.132812 18.296875 14.042969 18.445312 13.933594 C 18.492188 13.894531 18.542969 13.855469 18.589844 13.8125 L 18.59375 13.8125 C 19.304688 13.089844 19.410156 12.203125 19.011719 11.328125 C 18.839844 10.941406 18.566406 10.558594 18.203125 10.1875 C 16.691406 8.652344 15.285156 7.945312 14.804688 7.160156 C 14.679688 6.953125 14.609375 6.753906 14.582031 6.570312 C 14.480469 5.894531 14.957031 5.398438 15.507812 5.398438 C 14.746094 5.398438 14.023438 5.582031 13.386719 5.910156 "/>
<path style=" stroke:none;fill-rule:nonzero;fill:url(#radial8);" d="M 13.03125 6.300781 C 12.996094 6.363281 12.945312 6.464844 12.910156 6.601562 C 12.875 6.738281 12.839844 6.910156 12.851562 7.109375 C 12.863281 7.304688 12.902344 7.535156 13.023438 7.753906 C 13.078125 7.859375 13.128906 7.972656 13.207031 8.078125 C 13.28125 8.1875 13.355469 8.304688 13.445312 8.410156 C 13.617188 8.625 13.816406 8.839844 14.03125 9.046875 C 14.246094 9.253906 14.480469 9.460938 14.714844 9.664062 C 14.957031 9.863281 15.203125 10.066406 15.449219 10.261719 C 15.699219 10.457031 15.945312 10.65625 16.1875 10.851562 C 16.425781 11.050781 16.65625 11.25 16.871094 11.449219 C 17.085938 11.652344 17.289062 11.851562 17.464844 12.058594 C 17.558594 12.15625 17.628906 12.261719 17.707031 12.363281 C 17.789062 12.464844 17.839844 12.574219 17.898438 12.671875 C 17.925781 12.726562 17.957031 12.769531 17.976562 12.824219 C 17.988281 12.851562 17.996094 12.875 18.007812 12.898438 C 18.015625 12.925781 18.023438 12.953125 18.03125 12.976562 C 18.046875 13.03125 18.0625 13.082031 18.070312 13.128906 C 18.078125 13.179688 18.089844 13.226562 18.09375 13.273438 C 18.117188 13.464844 18.09375 13.632812 18.070312 13.765625 C 18.039062 13.902344 18 14.003906 17.96875 14.074219 C 17.9375 14.140625 17.917969 14.175781 17.917969 14.175781 C 17.917969 14.175781 17.941406 14.140625 17.980469 14.078125 C 18.015625 14.011719 18.066406 13.914062 18.101562 13.777344 C 18.140625 13.640625 18.171875 13.46875 18.160156 13.269531 C 18.164062 13.21875 18.152344 13.167969 18.148438 13.113281 C 18.144531 13.058594 18.132812 13.007812 18.117188 12.953125 C 18.113281 12.925781 18.105469 12.902344 18.097656 12.875 C 18.089844 12.84375 18.078125 12.816406 18.066406 12.789062 C 18.050781 12.734375 18.019531 12.679688 17.992188 12.625 C 17.9375 12.515625 17.882812 12.398438 17.804688 12.296875 C 17.730469 12.1875 17.660156 12.074219 17.566406 11.96875 C 17.398438 11.75 17.199219 11.539062 16.980469 11.332031 C 16.765625 11.121094 16.535156 10.917969 16.296875 10.714844 C 16.058594 10.511719 15.8125 10.3125 15.5625 10.113281 C 15.3125 9.921875 15.066406 9.722656 14.828125 9.527344 C 14.589844 9.328125 14.355469 9.128906 14.140625 8.929688 C 13.929688 8.722656 13.722656 8.527344 13.550781 8.320312 C 13.457031 8.222656 13.382812 8.117188 13.308594 8.015625 C 13.230469 7.917969 13.171875 7.804688 13.113281 7.703125 C 12.996094 7.503906 12.941406 7.292969 12.921875 7.105469 C 12.894531 6.914062 12.917969 6.746094 12.945312 6.609375 C 12.972656 6.476562 13.011719 6.375 13.042969 6.304688 C 13.074219 6.238281 13.09375 6.203125 13.09375 6.203125 C 13.09375 6.203125 13.070312 6.238281 13.03125 6.300781 "/>
<path style=" stroke:none;fill-rule:nonzero;fill:url(#radial9);" d="M 12.226562 13.0625 L 12.171875 13.574219 L 12.90625 12.832031 L 12.933594 12.207031 Z M 12.226562 13.0625 "/>
</g>
</svg>
