<?xml version="1.0" encoding="UTF-8"?>
<svg xmlns="http://www.w3.org/2000/svg" xmlns:xlink="http://www.w3.org/1999/xlink" width="136px" height="109px" viewBox="0 0 136 109" version="1.1">
<defs>
<radialGradient id="radial0" gradientUnits="userSpaceOnUse" cx="0" cy="0" fx="0" fy="0" r="1" gradientTransform="matrix(18.681906,-9.529657,9.512171,18.716247,59.416867,31.092904)">
<stop offset="0" style="stop-color:rgb(100%,100%,100%);stop-opacity:1;"/>
<stop offset="0.377155" style="stop-color:rgb(100%,100%,100%);stop-opacity:1;"/>
<stop offset="0.803366" style="stop-color:rgb(45.098039%,49.411765%,58.431373%);stop-opacity:1;"/>
<stop offset="0.993248" style="stop-color:rgb(55.686275%,58.039216%,65.882353%);stop-opacity:1;"/>
<stop offset="1" style="stop-color:rgb(55.686275%,58.039216%,65.882353%);stop-opacity:1;"/>
</radialGradient>
<radialGradient id="radial1" gradientUnits="userSpaceOnUse" cx="0" cy="0" fx="0" fy="0" r="1" gradientTransform="matrix(0.000000545376,-12.146868,12.12458,0.000000546379,77.834937,36.960752)">
<stop offset="0" style="stop-color:rgb(100%,100%,100%);stop-opacity:1;"/>
<stop offset="0.377155" style="stop-color:rgb(100%,100%,100%);stop-opacity:1;"/>
<stop offset="0.803366" style="stop-color:rgb(45.098039%,49.411765%,58.431373%);stop-opacity:1;"/>
<stop offset="0.993248" style="stop-color:rgb(55.686275%,58.039216%,65.882353%);stop-opacity:1;"/>
<stop offset="1" style="stop-color:rgb(55.686275%,58.039216%,65.882353%);stop-opacity:1;"/>
</radialGradient>
<radialGradient id="radial2" gradientUnits="userSpaceOnUse" cx="0" cy="0" fx="0" fy="0" r="1" gradientTransform="matrix(-18.681906,9.529657,-9.512171,-18.716247,72.39134,54.337284)">
<stop offset="0" style="stop-color:rgb(100%,100%,100%);stop-opacity:1;"/>
<stop offset="0.377155" style="stop-color:rgb(100%,100%,100%);stop-opacity:1;"/>
<stop offset="0.803366" style="stop-color:rgb(45.098039%,49.411765%,58.431373%);stop-opacity:1;"/>
<stop offset="0.993248" style="stop-color:rgb(55.686275%,58.039216%,65.882353%);stop-opacity:1;"/>
<stop offset="1" style="stop-color:rgb(55.686275%,58.039216%,65.882353%);stop-opacity:1;"/>
</radialGradient>
<radialGradient id="radial3" gradientUnits="userSpaceOnUse" cx="0" cy="0" fx="0" fy="0" r="1" gradientTransform="matrix(-17.147053,-13.773811,13.748537,-17.178574,75.501205,37.227298)">
<stop offset="0" style="stop-color:rgb(100%,100%,100%);stop-opacity:1;"/>
<stop offset="0.377155" style="stop-color:rgb(100%,100%,100%);stop-opacity:1;"/>
<stop offset="0.803366" style="stop-color:rgb(45.098039%,49.411765%,58.431373%);stop-opacity:1;"/>
<stop offset="0.993248" style="stop-color:rgb(55.686275%,58.039216%,65.882353%);stop-opacity:1;"/>
<stop offset="1" style="stop-color:rgb(55.686275%,58.039216%,65.882353%);stop-opacity:1;"/>
</radialGradient>
<radialGradient id="radial4" gradientUnits="userSpaceOnUse" cx="0" cy="0" fx="0" fy="0" r="1" gradientTransform="matrix(21.197141,12.109865,-12.087645,21.236106,53.287437,48.20265)">
<stop offset="0" style="stop-color:rgb(100%,100%,100%);stop-opacity:1;"/>
<stop offset="0.377155" style="stop-color:rgb(100%,100%,100%);stop-opacity:1;"/>
<stop offset="0.803366" style="stop-color:rgb(45.098039%,49.411765%,58.431373%);stop-opacity:1;"/>
<stop offset="0.993248" style="stop-color:rgb(55.686275%,58.039216%,65.882353%);stop-opacity:1;"/>
<stop offset="1" style="stop-color:rgb(55.686275%,58.039216%,65.882353%);stop-opacity:1;"/>
</radialGradient>
<radialGradient id="radial5" gradientUnits="userSpaceOnUse" cx="0" cy="0" fx="0" fy="0" r="1" gradientTransform="matrix(-0.00000233024,53.475223,-53.377103,-0.00000233453,66.876572,79.460813)">
<stop offset="0" style="stop-color:rgb(100%,85.098039%,67.45098%);stop-opacity:1;"/>
<stop offset="0.00372688" style="stop-color:rgb(100%,85.098039%,67.45098%);stop-opacity:1;"/>
<stop offset="0.233087" style="stop-color:rgb(100%,85.098039%,67.45098%);stop-opacity:1;"/>
<stop offset="0.489796" style="stop-color:rgb(94.901961%,39.607843%,13.333333%);stop-opacity:1;"/>
<stop offset="0.54552" style="stop-color:rgb(94.901961%,39.607843%,13.333333%);stop-opacity:1;"/>
<stop offset="0.880301" style="stop-color:rgb(69.803922%,12.54902%,19.215686%);stop-opacity:1;"/>
<stop offset="0.885289" style="stop-color:rgb(69.803922%,12.54902%,19.215686%);stop-opacity:1;"/>
<stop offset="1" style="stop-color:rgb(63.529412%,11.372549%,12.941176%);stop-opacity:1;"/>
</radialGradient>
<linearGradient id="linear0" gradientUnits="userSpaceOnUse" x1="0" y1="0" x2="0" y2="54" gradientTransform="matrix(0.495797,0,0,-0.496708,59.350603,49.427605)">
<stop offset="0" style="stop-color:rgb(96.078431%,31.764706%,37.254902%);stop-opacity:1;"/>
<stop offset="1" style="stop-color:rgb(62.352941%,1.568627%,10.588235%);stop-opacity:1;"/>
</linearGradient>
<radialGradient id="radial6" gradientUnits="userSpaceOnUse" cx="0" cy="0" fx="0" fy="0" r="1" gradientTransform="matrix(-0.00000148739,-34.613353,34.549843,-0.00000149012,63.481768,59.939317)">
<stop offset="0" style="stop-color:rgb(100%,85.098039%,67.45098%);stop-opacity:1;"/>
<stop offset="0.00372688" style="stop-color:rgb(100%,85.098039%,67.45098%);stop-opacity:1;"/>
<stop offset="0.233087" style="stop-color:rgb(100%,85.098039%,67.45098%);stop-opacity:1;"/>
<stop offset="0.489796" style="stop-color:rgb(94.901961%,39.607843%,13.333333%);stop-opacity:1;"/>
<stop offset="0.54552" style="stop-color:rgb(94.901961%,39.607843%,13.333333%);stop-opacity:1;"/>
<stop offset="0.880301" style="stop-color:rgb(69.803922%,12.54902%,19.215686%);stop-opacity:1;"/>
<stop offset="0.885289" style="stop-color:rgb(69.803922%,12.54902%,19.215686%);stop-opacity:1;"/>
<stop offset="1" style="stop-color:rgb(63.529412%,11.372549%,12.941176%);stop-opacity:1;"/>
</radialGradient>
<radialGradient id="radial7" gradientUnits="userSpaceOnUse" cx="0" cy="0" fx="0" fy="0" r="1" gradientTransform="matrix(-0.00000148739,34.165326,-34.102638,-0.00000149012,66.677091,27.47261)">
<stop offset="0" style="stop-color:rgb(100%,85.098039%,67.45098%);stop-opacity:1;"/>
<stop offset="0.00372688" style="stop-color:rgb(100%,85.098039%,67.45098%);stop-opacity:1;"/>
<stop offset="0.233087" style="stop-color:rgb(100%,85.098039%,67.45098%);stop-opacity:1;"/>
<stop offset="0.489796" style="stop-color:rgb(94.901961%,39.607843%,13.333333%);stop-opacity:1;"/>
<stop offset="0.54552" style="stop-color:rgb(94.901961%,39.607843%,13.333333%);stop-opacity:1;"/>
<stop offset="0.880301" style="stop-color:rgb(69.803922%,12.54902%,19.215686%);stop-opacity:1;"/>
<stop offset="0.885289" style="stop-color:rgb(69.803922%,12.54902%,19.215686%);stop-opacity:1;"/>
<stop offset="1" style="stop-color:rgb(63.529412%,11.372549%,12.941176%);stop-opacity:1;"/>
</radialGradient>
<radialGradient id="radial8" gradientUnits="userSpaceOnUse" cx="0" cy="0" fx="0" fy="0" r="1" gradientTransform="matrix(-0.00000118991,27.669765,-27.618995,-0.0000011921,59.906367,33.035838)">
<stop offset="0" style="stop-color:rgb(100%,85.098039%,67.45098%);stop-opacity:1;"/>
<stop offset="0.00372688" style="stop-color:rgb(100%,85.098039%,67.45098%);stop-opacity:1;"/>
<stop offset="0.0371754" style="stop-color:rgb(100%,85.098039%,67.45098%);stop-opacity:1;"/>
<stop offset="1" style="stop-color:rgb(94.901961%,39.607843%,13.333333%);stop-opacity:1;"/>
</radialGradient>
<radialGradient id="radial9" gradientUnits="userSpaceOnUse" cx="0" cy="0" fx="0" fy="0" r="1" gradientTransform="matrix(-0.000000545376,12.147596,-12.125307,-0.000000546379,53.972545,48.469436)">
<stop offset="0" style="stop-color:rgb(100%,100%,100%);stop-opacity:1;"/>
<stop offset="0.377155" style="stop-color:rgb(100%,100%,100%);stop-opacity:1;"/>
<stop offset="0.803366" style="stop-color:rgb(45.098039%,49.411765%,58.431373%);stop-opacity:1;"/>
<stop offset="0.993248" style="stop-color:rgb(55.686275%,58.039216%,65.882353%);stop-opacity:1;"/>
<stop offset="1" style="stop-color:rgb(55.686275%,58.039216%,65.882353%);stop-opacity:1;"/>
</radialGradient>
</defs>
<g id="surface1">
<path style=" stroke:none;fill-rule:nonzero;fill:rgb(64.313728%,10.980392%,14.117648%);fill-opacity:1;" d="M 41.078125 19.800781 C 42.449219 19.800781 43.78125 19.03125 43.78125 17.546875 C 43.78125 16.082031 42.636719 15.472656 41.390625 15.097656 C 41.054688 14.988281 40.808594 14.890625 40.644531 14.8125 C 40.417969 14.707031 40.257812 14.585938 40.257812 14.316406 C 40.257812 14.003906 40.65625 13.882812 40.90625 13.882812 C 41.488281 13.882812 41.78125 14.144531 42.03125 14.652344 L 43.566406 13.753906 C 43.035156 12.65625 42.117188 12.09375 40.90625 12.09375 C 39.585938 12.09375 38.460938 12.949219 38.460938 14.316406 C 38.460938 15.714844 39.453125 16.265625 40.65625 16.625 C 41.035156 16.730469 41.304688 16.832031 41.488281 16.90625 C 41.738281 17.003906 41.988281 17.132812 41.988281 17.4375 C 41.988281 17.839844 41.445312 18.03125 41.121094 18.03125 C 40.417969 18.03125 39.933594 17.761719 39.660156 17.089844 L 38.144531 17.980469 C 38.632812 19.226562 39.777344 19.800781 41.078125 19.800781 Z M 48.921875 12.234375 L 46.097656 12.234375 L 46.097656 19.648438 L 47.890625 19.648438 L 47.890625 17.265625 L 48.921875 17.265625 C 50.316406 17.265625 51.441406 16.136719 51.441406 14.75 C 51.441406 13.363281 50.316406 12.234375 48.921875 12.234375 Z M 47.890625 15.550781 L 47.890625 13.945312 L 48.921875 13.945312 C 49.386719 13.945312 49.722656 14.285156 49.722656 14.75 C 49.722656 15.203125 49.375 15.550781 48.921875 15.550781 Z M 57.78125 19.648438 L 59.707031 19.648438 L 56.992188 12.234375 L 55.066406 12.234375 L 52.359375 19.648438 L 54.289062 19.648438 L 54.761719 18.359375 L 57.304688 18.359375 Z M 55.378906 16.644531 L 56.039062 14.855469 L 56.679688 16.644531 Z M 61.144531 15.972656 C 61.144531 18.085938 62.878906 19.800781 64.964844 19.800781 C 66.363281 19.800781 67.679688 18.996094 68.328125 17.761719 L 66.738281 16.894531 C 66.414062 17.554688 65.699219 17.988281 64.964844 17.988281 C 63.859375 17.988281 62.941406 17.070312 62.941406 15.972656 C 62.941406 14.867188 63.875 13.960938 64.964844 13.960938 C 65.699219 13.960938 66.371094 14.347656 66.730469 14.996094 L 68.308594 14.152344 C 67.648438 12.917969 66.363281 12.160156 64.964844 12.160156 C 62.867188 12.160156 61.144531 13.847656 61.144531 15.972656 Z M 72.386719 17.945312 L 72.386719 16.710938 L 74.960938 16.710938 L 74.960938 15.011719 L 72.386719 15.011719 L 72.386719 13.945312 L 75.21875 13.945312 L 75.21875 12.234375 L 70.582031 12.234375 L 70.582031 19.648438 L 75.277344 19.648438 L 75.277344 17.945312 Z M 86.992188 19.648438 L 88.917969 19.648438 L 86.203125 12.234375 L 84.273438 12.234375 L 81.570312 19.648438 L 83.496094 19.648438 L 83.972656 18.359375 L 86.515625 18.359375 Z M 84.589844 16.644531 L 85.25 14.855469 L 85.886719 16.644531 Z M 91.222656 12.234375 L 91.222656 19.648438 L 93.027344 19.648438 L 93.027344 12.234375 Z M 91.222656 12.234375 "/>
<path style=" stroke:none;fill-rule:nonzero;fill:rgb(94.901961%,39.607844%,13.333334%);fill-opacity:1;" d="M 41.460938 45.347656 L 40.4375 44.851562 L 41.410156 44.261719 L 41.378906 43.527344 L 39.660156 44.558594 L 38.757812 44.601562 L 38.789062 45.25 L 39.683594 45.210938 L 41.496094 46.082031 Z M 41.460938 45.347656 "/>
<path style=" stroke:none;fill-rule:nonzero;fill:rgb(94.901961%,39.607844%,13.333334%);fill-opacity:1;" d="M 39.171875 48.820312 C 39.316406 49.574219 40.039062 50.054688 40.78125 49.914062 C 41.535156 49.773438 42.015625 49.054688 41.875 48.308594 C 41.730469 47.554688 41.011719 47.066406 40.269531 47.207031 C 39.53125 47.347656 39.03125 48.074219 39.171875 48.820312 Z M 40.390625 47.84375 C 40.78125 47.773438 41.164062 48.039062 41.238281 48.425781 C 41.3125 48.824219 41.050781 49.199219 40.660156 49.273438 C 40.269531 49.347656 39.886719 49.09375 39.8125 48.699219 C 39.738281 48.308594 40.003906 47.917969 40.390625 47.84375 Z M 40.390625 47.84375 "/>
<path style=" stroke:none;fill-rule:nonzero;fill:rgb(94.901961%,39.607844%,13.333334%);fill-opacity:1;" d="M 41.519531 53.566406 L 43.1875 52.972656 L 42.96875 52.363281 L 41.300781 52.953125 C 41.089844 53.027344 40.941406 52.847656 40.878906 52.664062 C 40.816406 52.496094 40.828125 52.246094 41.027344 52.175781 L 42.695312 51.585938 L 42.480469 50.976562 L 40.8125 51.566406 C 40.253906 51.761719 40.082031 52.359375 40.269531 52.882812 C 40.453125 53.410156 40.972656 53.757812 41.519531 53.566406 Z M 41.519531 53.566406 "/>
<path style=" stroke:none;fill-rule:nonzero;fill:rgb(94.901961%,39.607844%,13.333334%);fill-opacity:1;" d="M 42.640625 56.054688 L 42.105469 56.878906 L 42.449219 57.535156 L 43.078125 56.570312 C 43.347656 56.722656 43.667969 56.722656 43.9375 56.582031 C 44.382812 56.347656 44.550781 55.804688 44.320312 55.359375 L 43.792969 54.355469 L 41.433594 55.597656 L 41.734375 56.175781 L 42.496094 55.777344 Z M 43.039062 55.488281 L 43.550781 55.21875 L 43.773438 55.644531 C 43.851562 55.792969 43.800781 55.960938 43.652344 56.039062 C 43.515625 56.109375 43.335938 56.054688 43.261719 55.914062 Z M 43.039062 55.488281 "/>
<path style=" stroke:none;fill-rule:nonzero;fill:rgb(94.901961%,39.607844%,13.333334%);fill-opacity:1;" d="M 45.257812 61.566406 C 45.578125 61.945312 46.101562 62.132812 46.507812 61.785156 C 46.910156 61.445312 46.808594 60.988281 46.621094 60.554688 C 46.574219 60.4375 46.542969 60.34375 46.527344 60.285156 C 46.503906 60.195312 46.496094 60.125 46.570312 60.058594 C 46.65625 59.988281 46.785156 60.070312 46.84375 60.140625 C 46.976562 60.300781 46.972656 60.441406 46.894531 60.625 L 47.5 60.84375 C 47.675781 60.441406 47.613281 60.058594 47.332031 59.722656 C 47.023438 59.359375 46.527344 59.25 46.152344 59.566406 C 45.769531 59.890625 45.851562 60.296875 46.03125 60.710938 C 46.089844 60.839844 46.125 60.933594 46.148438 61.003906 C 46.179688 61.097656 46.203125 61.195312 46.121094 61.265625 C 46.007812 61.359375 45.828125 61.253906 45.753906 61.164062 C 45.589844 60.972656 45.550781 60.773438 45.671875 60.542969 L 45.074219 60.335938 C 44.847656 60.757812 44.957031 61.207031 45.257812 61.566406 Z M 45.257812 61.566406 "/>
<path style=" stroke:none;fill-rule:nonzero;fill:rgb(94.901961%,39.607844%,13.333334%);fill-opacity:1;" d="M 49.652344 62.1875 L 48.898438 61.503906 L 47.105469 63.480469 L 47.582031 63.914062 L 48.160156 63.277344 L 48.433594 63.53125 C 48.808594 63.867188 49.378906 63.839844 49.714844 63.46875 C 50.050781 63.101562 50.023438 62.527344 49.652344 62.1875 Z M 48.574219 62.820312 L 48.960938 62.394531 L 49.238281 62.644531 C 49.363281 62.757812 49.367188 62.929688 49.257812 63.050781 C 49.144531 63.171875 48.96875 63.183594 48.847656 63.074219 Z M 48.574219 62.820312 "/>
<path style=" stroke:none;fill-rule:nonzero;fill:rgb(94.901961%,39.607844%,13.333334%);fill-opacity:1;" d="M 51.039062 66.640625 L 51.609375 67.039062 L 52.328125 64.289062 L 51.757812 63.890625 L 49.4375 65.523438 L 50.003906 65.921875 L 50.410156 65.636719 L 51.164062 66.164062 Z M 50.945312 65.257812 L 51.507812 64.867188 L 51.328125 65.527344 Z M 50.945312 65.257812 "/>
<path style=" stroke:none;fill-rule:nonzero;fill:rgb(94.901961%,39.607844%,13.333334%);fill-opacity:1;" d="M 55.195312 66.667969 L 55.484375 66.125 L 53.726562 65.1875 L 53.4375 65.734375 L 54.03125 66.050781 L 53.070312 67.863281 L 53.640625 68.167969 L 54.605469 66.351562 Z M 55.195312 66.667969 "/>
<path style=" stroke:none;fill-rule:nonzero;fill:rgb(94.901961%,39.607844%,13.333334%);fill-opacity:1;" d="M 56.714844 66.65625 L 55.722656 69.136719 L 56.328125 69.378906 L 57.320312 66.898438 Z M 56.714844 66.65625 "/>
<path style=" stroke:none;fill-rule:nonzero;fill:rgb(94.901961%,39.607844%,13.333334%);fill-opacity:1;" d="M 59.675781 70.441406 L 60.347656 70.621094 L 60.097656 67.789062 L 59.425781 67.605469 L 57.789062 69.929688 L 58.460938 70.109375 L 58.746094 69.707031 L 59.632812 69.949219 Z M 59.121094 69.171875 L 59.519531 68.609375 L 59.574219 69.292969 Z M 59.121094 69.171875 "/>
<path style=" stroke:none;fill-rule:nonzero;fill:rgb(94.901961%,39.607844%,13.333334%);fill-opacity:1;" d="M 62.660156 70.378906 L 62.929688 68.339844 L 62.28125 68.253906 L 61.933594 70.902344 L 63.605469 71.121094 L 63.6875 70.511719 Z M 62.660156 70.378906 "/>
<path style=" stroke:none;fill-rule:nonzero;fill:rgb(94.901961%,39.607844%,13.333334%);fill-opacity:1;" d="M 69.285156 71.070312 L 69.976562 71.011719 L 68.769531 68.4375 L 68.078125 68.496094 L 67.339844 71.242188 L 68.03125 71.183594 L 68.160156 70.703125 L 69.074219 70.625 Z M 68.328125 70.070312 L 68.507812 69.40625 L 68.796875 70.027344 Z M 68.328125 70.070312 "/>
<path style=" stroke:none;fill-rule:nonzero;fill:rgb(94.901961%,39.607844%,13.333334%);fill-opacity:1;" d="M 71.992188 67.886719 L 71 68.117188 L 71.601562 70.722656 L 72.234375 70.574219 L 72.039062 69.738281 L 72.402344 69.652344 C 72.890625 69.539062 73.195312 69.050781 73.082031 68.566406 C 72.96875 68.078125 72.480469 67.773438 71.992188 67.886719 Z M 71.898438 69.136719 L 71.769531 68.570312 L 72.132812 68.488281 C 72.292969 68.449219 72.4375 68.542969 72.476562 68.707031 C 72.515625 68.867188 72.421875 69.015625 72.261719 69.050781 Z M 71.898438 69.136719 "/>
<path style=" stroke:none;fill-rule:nonzero;fill:rgb(94.901961%,39.607844%,13.333334%);fill-opacity:1;" d="M 75.183594 66.898438 L 74.230469 67.261719 L 75.175781 69.757812 L 75.78125 69.527344 L 75.476562 68.722656 L 75.824219 68.59375 C 76.292969 68.414062 76.527344 67.890625 76.351562 67.421875 C 76.175781 66.953125 75.652344 66.71875 75.183594 66.898438 Z M 75.257812 68.148438 L 75.054688 67.605469 L 75.402344 67.472656 C 75.558594 67.414062 75.714844 67.488281 75.773438 67.644531 C 75.832031 67.796875 75.757812 67.957031 75.605469 68.015625 Z M 75.257812 68.148438 "/>
<path style=" stroke:none;fill-rule:nonzero;fill:rgb(94.901961%,39.607844%,13.333334%);fill-opacity:1;" d="M 79.414062 67.933594 C 79.851562 67.699219 80.140625 67.226562 79.886719 66.753906 C 79.636719 66.292969 79.167969 66.296875 78.710938 66.390625 C 78.585938 66.414062 78.488281 66.425781 78.425781 66.429688 C 78.335938 66.433594 78.261719 66.421875 78.214844 66.335938 C 78.164062 66.238281 78.269531 66.132812 78.347656 66.089844 C 78.535156 65.988281 78.667969 66.019531 78.835938 66.136719 L 79.167969 65.589844 C 78.8125 65.332031 78.425781 65.3125 78.042969 65.523438 C 77.625 65.75 77.414062 66.214844 77.648438 66.644531 C 77.886719 67.089844 78.296875 67.09375 78.738281 67 C 78.878906 66.96875 78.976562 66.953125 79.050781 66.945312 C 79.148438 66.933594 79.246094 66.933594 79.300781 67.027344 C 79.367188 67.15625 79.230469 67.3125 79.125 67.367188 C 78.902344 67.488281 78.703125 67.484375 78.503906 67.320312 L 78.175781 67.859375 C 78.542969 68.171875 79.003906 68.15625 79.414062 67.933594 Z M 79.414062 67.933594 "/>
<path style=" stroke:none;fill-rule:nonzero;fill:rgb(94.901961%,39.607844%,13.333334%);fill-opacity:1;" d="M 82.5625 62.445312 L 81.792969 63.109375 L 83.53125 65.136719 L 84.023438 64.710938 L 83.460938 64.0625 L 83.742188 63.816406 C 84.125 63.488281 84.167969 62.914062 83.84375 62.539062 C 83.515625 62.15625 82.945312 62.117188 82.5625 62.445312 Z M 83.058594 63.59375 L 82.683594 63.15625 L 82.964844 62.910156 C 83.089844 62.800781 83.261719 62.816406 83.371094 62.945312 C 83.476562 63.066406 83.464844 63.242188 83.339844 63.351562 Z M 83.058594 63.59375 "/>
<path style=" stroke:none;fill-rule:nonzero;fill:rgb(94.901961%,39.607844%,13.333334%);fill-opacity:1;" d="M 87.144531 61.609375 L 87.609375 61.09375 L 84.972656 60.039062 L 84.507812 60.558594 L 85.839844 63.066406 L 86.304688 62.550781 L 86.074219 62.113281 L 86.6875 61.429688 Z M 85.765625 61.535156 L 85.445312 60.925781 L 86.078125 61.183594 Z M 85.765625 61.535156 "/>
<path style=" stroke:none;fill-rule:nonzero;fill:rgb(94.901961%,39.607844%,13.333334%);fill-opacity:1;" d="M 88.421875 58.492188 L 89.402344 58.566406 L 89.8125 57.949219 L 88.664062 57.855469 C 88.667969 57.546875 88.515625 57.265625 88.261719 57.097656 C 87.839844 56.816406 87.285156 56.929688 87.007812 57.347656 L 86.382812 58.292969 L 88.601562 59.769531 L 88.960938 59.226562 L 88.25 58.75 Z M 87.734375 58.410156 L 87.253906 58.089844 L 87.519531 57.6875 C 87.613281 57.550781 87.785156 57.515625 87.921875 57.609375 C 88.050781 57.695312 88.089844 57.878906 88 58.007812 Z M 87.734375 58.410156 "/>
<path style=" stroke:none;fill-rule:nonzero;fill:rgb(94.901961%,39.607844%,13.333334%);fill-opacity:1;" d="M 89.558594 53.976562 L 89.007812 53.707031 L 88.132812 55.5 L 88.6875 55.769531 L 88.980469 55.164062 L 90.824219 56.066406 L 91.109375 55.480469 L 89.265625 54.578125 Z M 89.558594 53.976562 "/>
<path style=" stroke:none;fill-rule:nonzero;fill:rgb(94.901961%,39.607844%,13.333334%);fill-opacity:1;" d="M 90 50.984375 L 91.289062 51.40625 L 89.734375 51.808594 L 89.53125 52.429688 L 92.066406 53.257812 L 92.265625 52.640625 L 90.816406 52.164062 L 92.570312 51.710938 L 92.738281 51.195312 L 90.203125 50.367188 Z M 90 50.984375 "/>
<path style=" stroke:none;fill-rule:nonzero;fill:rgb(94.901961%,39.607844%,13.333334%);fill-opacity:1;" d="M 92.703125 48.558594 L 92.265625 48.476562 L 92.429688 47.5625 L 91.824219 47.453125 L 91.660156 48.371094 L 91.285156 48.304688 L 91.464844 47.292969 L 90.863281 47.1875 L 90.566406 48.835938 L 93.191406 49.308594 L 93.488281 47.636719 L 92.886719 47.53125 Z M 92.703125 48.558594 "/>
<path style=" stroke:none;fill-rule:nonzero;fill:rgb(94.901961%,39.607844%,13.333334%);fill-opacity:1;" d="M 92.875 44.882812 L 93.753906 44.441406 L 93.785156 43.699219 L 92.753906 44.210938 C 92.597656 43.949219 92.324219 43.785156 92.019531 43.773438 C 91.515625 43.75 91.097656 44.136719 91.074219 44.636719 L 91.027344 45.765625 L 93.6875 45.882812 L 93.71875 45.234375 L 92.863281 45.195312 Z M 92.246094 45.167969 L 91.667969 45.144531 L 91.6875 44.664062 C 91.695312 44.496094 91.828125 44.378906 91.992188 44.386719 C 92.148438 44.390625 92.273438 44.53125 92.265625 44.6875 Z M 92.246094 45.167969 "/>
<path style=" stroke:none;fill-rule:nonzero;fill:url(#radial0);" d="M 62.660156 26.824219 L 59.824219 29.453125 C 67.089844 26.804688 74.613281 30.570312 76.847656 34.253906 L 76.960938 31.636719 C 76.960938 31.636719 74.90625 27.472656 70.191406 26.214844 C 69 25.898438 67.933594 25.78125 67.003906 25.78125 C 64.234375 25.78125 62.660156 26.824219 62.660156 26.824219 "/>
<path style=" stroke:none;fill-rule:nonzero;fill:url(#radial1);" d="M 76.960938 31.636719 L 76.847656 34.253906 L 79.839844 30.671875 L 80.078125 28.515625 Z M 76.960938 31.636719 "/>
<path style=" stroke:none;fill-rule:nonzero;fill:url(#radial2);" d="M 54.847656 53.792969 C 54.847656 53.792969 56.902344 57.957031 61.617188 59.214844 C 66.335938 60.472656 69.148438 58.605469 69.148438 58.605469 L 71.984375 55.976562 C 64.71875 58.625 57.191406 54.859375 54.960938 51.175781 Z M 54.847656 53.792969 "/>
<path style=" stroke:none;fill-rule:nonzero;fill:url(#radial3);" d="M 61.972656 27.546875 C 63.230469 27.214844 64.546875 27.046875 65.90625 27.046875 C 70.21875 27.046875 74.132812 28.800781 76.960938 31.636719 L 80.078125 28.515625 C 76.449219 24.878906 71.4375 22.632812 65.90625 22.632812 C 63.5625 22.632812 61.539062 24.710938 61.972656 27.546875 "/>
<path style=" stroke:none;fill-rule:nonzero;fill:url(#radial4);" d="M 51.730469 56.914062 C 55.355469 60.550781 60.367188 62.800781 65.90625 62.800781 C 68.242188 62.800781 70.261719 60.71875 69.828125 57.882812 C 68.578125 58.214844 67.261719 58.382812 65.90625 58.382812 C 61.582031 58.382812 57.671875 56.628906 54.847656 53.792969 Z M 51.730469 56.914062 "/>
<path style=" stroke:none;fill-rule:nonzero;fill:url(#radial5);" d="M 62.304688 50.90625 C 65.851562 53.847656 69.039062 56.695312 68.046875 59.734375 C 67.183594 62.378906 62.746094 62.800781 59.46875 61.738281 C 61.238281 62.4375 63.9375 62.910156 65.90625 62.800781 C 68.171875 62.671875 69.25 62.328125 70.492188 61.453125 C 72.535156 60.007812 73.417969 57.519531 70.996094 54.960938 C 67.097656 50.84375 50.304688 36.003906 50.304688 36.003906 C 51.460938 42.488281 57.453125 46.890625 62.304688 50.90625 "/>
<path style=" stroke:none;fill-rule:nonzero;fill:url(#linear0);" d="M 65.90625 22.632812 C 63.636719 22.757812 62.554688 23.101562 61.316406 23.980469 C 59.273438 25.421875 58.390625 27.910156 60.8125 30.46875 C 64.710938 34.585938 81.503906 49.425781 81.503906 49.425781 C 80.347656 42.945312 74.355469 38.542969 69.503906 34.523438 C 65.957031 31.582031 62.769531 28.738281 63.761719 25.695312 C 64.625 23.050781 69.0625 22.632812 72.339844 23.691406 C 70.742188 23.0625 68.386719 22.617188 66.496094 22.617188 C 66.292969 22.617188 66.09375 22.621094 65.90625 22.632812 "/>
<path style=" stroke:none;fill-rule:nonzero;fill:url(#radial6);" d="M 53.421875 26.996094 C 53.210938 27.167969 52.996094 27.34375 52.789062 27.519531 L 52.78125 27.527344 C 49.765625 30.558594 49.300781 34.269531 51 37.945312 C 51.742188 39.5625 52.898438 41.171875 54.445312 42.714844 C 60.878906 49.160156 66.851562 52.117188 68.878906 55.414062 C 69.410156 56.273438 69.714844 57.109375 69.828125 57.882812 C 70.261719 60.71875 68.242188 62.800781 65.90625 62.800781 C 69.140625 62.800781 72.203125 62.03125 74.910156 60.660156 C 74.917969 60.652344 74.921875 60.652344 74.929688 60.648438 C 75.410156 60.367188 75.824219 59.945312 76.160156 59.425781 C 77.070312 58.011719 77.359375 55.898438 76.726562 54.019531 C 76.664062 53.84375 76.597656 53.664062 76.519531 53.488281 C 74.941406 49.964844 70.4375 46.238281 65.90625 42.714844 C 61.363281 39.191406 56.867188 35.464844 55.289062 31.941406 C 55.210938 31.765625 55.144531 31.585938 55.082031 31.410156 C 54.445312 29.535156 54.730469 27.417969 55.644531 26.003906 C 54.863281 26.171875 54.054688 26.558594 53.421875 26.996094 "/>
<path style=" stroke:none;fill-rule:nonzero;fill:url(#radial7);" d="M 56.898438 24.773438 C 56.40625 25.050781 55.976562 25.480469 55.644531 26.003906 C 54.730469 27.417969 54.445312 29.535156 55.082031 31.410156 C 55.144531 31.585938 55.210938 31.765625 55.289062 31.941406 C 56.867188 35.464844 61.363281 39.191406 65.90625 42.714844 C 70.4375 46.238281 74.941406 49.964844 76.519531 53.488281 C 76.597656 53.664062 76.664062 53.84375 76.726562 54.019531 C 77.359375 55.898438 77.070312 58.011719 76.160156 59.425781 C 76.9375 59.257812 77.753906 58.871094 78.386719 58.421875 C 78.597656 58.257812 78.8125 58.085938 79.011719 57.910156 L 79.019531 57.902344 C 82.042969 54.871094 82.5 51.160156 80.800781 47.484375 C 80.066406 45.867188 78.902344 44.257812 77.363281 42.714844 C 70.929688 36.269531 64.953125 33.3125 62.921875 30.015625 C 62.394531 29.15625 62.09375 28.320312 61.972656 27.546875 C 61.539062 24.710938 63.5625 22.632812 65.90625 22.632812 C 62.667969 22.632812 59.605469 23.398438 56.898438 24.773438 "/>
<path style=" stroke:none;fill-rule:nonzero;fill:url(#radial8);" d="M 55.390625 26.414062 C 55.238281 26.683594 55.023438 27.105469 54.863281 27.675781 C 54.714844 28.246094 54.570312 28.96875 54.617188 29.804688 C 54.664062 30.632812 54.828125 31.59375 55.34375 32.503906 C 55.578125 32.949219 55.789062 33.421875 56.132812 33.871094 C 56.445312 34.328125 56.757812 34.820312 57.144531 35.253906 C 57.871094 36.164062 58.714844 37.058594 59.632812 37.929688 C 60.546875 38.800781 61.535156 39.65625 62.542969 40.511719 C 63.5625 41.355469 64.609375 42.195312 65.660156 43.027344 C 66.71875 43.84375 67.777344 44.667969 68.792969 45.492188 C 69.804688 46.324219 70.792969 47.15625 71.703125 48.003906 C 72.609375 48.855469 73.480469 49.6875 74.222656 50.546875 C 74.621094 50.957031 74.929688 51.410156 75.253906 51.835938 C 75.597656 52.25 75.824219 52.707031 76.070312 53.132812 C 76.191406 53.359375 76.324219 53.535156 76.402344 53.765625 C 76.449219 53.871094 76.488281 53.972656 76.53125 54.078125 C 76.566406 54.1875 76.601562 54.300781 76.632812 54.410156 C 76.707031 54.628906 76.769531 54.839844 76.796875 55.042969 C 76.832031 55.25 76.886719 55.445312 76.894531 55.648438 C 76.992188 56.445312 76.898438 57.152344 76.789062 57.714844 C 76.667969 58.28125 76.507812 58.714844 76.375 58.996094 C 76.234375 59.277344 76.160156 59.425781 76.160156 59.425781 C 76.160156 59.425781 76.246094 59.285156 76.414062 59.015625 C 76.570312 58.746094 76.777344 58.324219 76.9375 57.753906 C 77.089844 57.183594 77.234375 56.460938 77.1875 55.625 C 77.195312 55.417969 77.148438 55.203125 77.128906 54.976562 C 77.109375 54.746094 77.058594 54.527344 77 54.308594 C 76.972656 54.195312 76.949219 54.085938 76.917969 53.96875 C 76.875 53.851562 76.832031 53.734375 76.789062 53.617188 C 76.722656 53.386719 76.574219 53.152344 76.46875 52.929688 C 76.230469 52.476562 76.003906 51.984375 75.671875 51.546875 C 75.355469 51.097656 75.050781 50.609375 74.664062 50.175781 C 73.9375 49.265625 73.09375 48.371094 72.171875 47.5 C 71.257812 46.628906 70.273438 45.773438 69.261719 44.921875 C 68.242188 44.070312 67.199219 43.234375 66.144531 42.402344 C 65.085938 41.589844 64.035156 40.765625 63.011719 39.941406 C 62 39.109375 61.015625 38.273438 60.101562 37.429688 C 59.195312 36.574219 58.324219 35.742188 57.585938 34.882812 C 57.183594 34.46875 56.882812 34.023438 56.5625 33.605469 C 56.222656 33.203125 55.984375 32.726562 55.734375 32.292969 C 55.226562 31.460938 55.007812 30.570312 54.910156 29.78125 C 54.808594 28.984375 54.902344 28.28125 55.011719 27.714844 C 55.136719 27.148438 55.292969 26.71875 55.425781 26.433594 C 55.570312 26.152344 55.644531 26.003906 55.644531 26.003906 C 55.644531 26.003906 55.554688 26.144531 55.390625 26.414062 "/>
<path style=" stroke:none;fill-rule:nonzero;fill:url(#radial9);" d="M 51.96875 54.757812 L 51.730469 56.914062 L 54.847656 53.792969 L 54.960938 51.175781 Z M 51.96875 54.757812 "/>
</g>
</svg>
